<?xml version="1.0" encoding="UTF-8" standalone="no"?>
<!-- Created with Inkscape (http://www.inkscape.org/) -->

<svg
   width="512"
   height="512"
   viewBox="0 0 512 512"
   version="1.1"
   id="svg5"
   inkscape:version="1.1.2 (0a00cf5339, 2022-02-04)"
   sodipodi:docname="drawing.svg"
   inkscape:export-filename="/home/picard/Downloads/drawing.png"
   inkscape:export-xdpi="96"
   inkscape:export-ydpi="96"
   xmlns:inkscape="http://www.inkscape.org/namespaces/inkscape"
   xmlns:sodipodi="http://sodipodi.sourceforge.net/DTD/sodipodi-0.dtd"
   xmlns:xlink="http://www.w3.org/1999/xlink"
   xmlns="http://www.w3.org/2000/svg"
   xmlns:svg="http://www.w3.org/2000/svg">
  <sodipodi:namedview
     id="namedview7"
     pagecolor="#ffffff"
     bordercolor="#666666"
     borderopacity="1.0"
     inkscape:pageshadow="2"
     inkscape:pageopacity="0.0"
     inkscape:pagecheckerboard="0"
     inkscape:document-units="px"
     showgrid="false"
     inkscape:zoom="1.28"
     inkscape:cx="184.76562"
     inkscape:cy="259.76562"
     inkscape:window-width="1920"
     inkscape:window-height="1012"
     inkscape:window-x="0"
     inkscape:window-y="32"
     inkscape:window-maximized="1"
     inkscape:current-layer="text6949" />
  <defs
     id="defs2">
    <linearGradient
       inkscape:collect="always"
       id="linearGradient138152">
      <stop
         style="stop-color:#0290ee;stop-opacity:1"
         offset="0"
         id="stop138148" />
      <stop
         style="stop-color:#0060e0;stop-opacity:1"
         offset="1"
         id="stop138150" />
    </linearGradient>
    <linearGradient
       inkscape:collect="always"
       id="linearGradient135396">
      <stop
         style="stop-color:#53febe;stop-opacity:1"
         offset="0"
         id="stop135392" />
      <stop
         style="stop-color:#9059ff;stop-opacity:1"
         offset="1"
         id="stop135394" />
    </linearGradient>
    <linearGradient
       id="linearGradient133730"
       inkscape:swatch="solid">
      <stop
         style="stop-color:#000000;stop-opacity:1;"
         offset="0"
         id="stop133728" />
    </linearGradient>
    <linearGradient
       id="linearGradient34086"
       inkscape:swatch="solid">
      <stop
         style="stop-color:#ffff00;stop-opacity:1;"
         offset="0"
         id="stop34084" />
    </linearGradient>
    <inkscape:perspective
       sodipodi:type="inkscape:persp3d"
       inkscape:vp_x="-544.20093 : 343.98034 : 1"
       inkscape:vp_y="0 : 1000 : 0"
       inkscape:vp_z="367.86045 : 795.67236 : 1"
       inkscape:persp3d-origin="256 : 170.66667 : 1"
       id="perspective59" />
    <linearGradient
       inkscape:collect="always"
       xlink:href="#linearGradient135396"
       id="linearGradient136298"
       x1="220.16325"
       y1="231.20943"
       x2="289.47253"
       y2="309.7659"
       gradientUnits="userSpaceOnUse" />
    <radialGradient
       inkscape:collect="always"
       xlink:href="#linearGradient138152"
       id="radialGradient138188"
       cx="250"
       cy="250"
       fx="250"
       fy="250"
       r="190"
       gradientUnits="userSpaceOnUse"
       gradientTransform="matrix(1.0526316,0,0,1.0526316,-13.157895,-13.157895)" />
    <linearGradient
       inkscape:collect="always"
       xlink:href="#linearGradient135396"
       id="linearGradient138465"
       gradientUnits="userSpaceOnUse"
       x1="220.16325"
       y1="231.20943"
       x2="289.47253"
       y2="309.7659" />
    <linearGradient
       inkscape:collect="always"
       xlink:href="#linearGradient135396"
       id="linearGradient138469"
       gradientUnits="userSpaceOnUse"
       x1="180.916"
       y1="369.52023"
       x2="200.56488"
       y2="433.15079"
       gradientTransform="translate(28.962338,-71.057371)" />
  </defs>
  <g
     inkscape:label="Logo"
     inkscape:groupmode="layer"
     id="layer1">
    <rect
       style="fill:url(#radialGradient138188);fill-opacity:1;stroke-width:20;stroke-miterlimit:4;stroke-dasharray:none;stroke:#0290ee;stroke-opacity:1;stroke-dashoffset:0;paint-order:stroke fill markers;stroke-linecap:round"
       id="base"
       width="400"
       height="400"
       x="50"
       y="50"
       rx="20" />
    <g
       aria-label="s"
       id="text6949"
       style="font-size:400px;line-height:1.25;font-family:'True Lies';-inkscape-font-specification:'True Lies';opacity:1;mix-blend-mode:overlay;fill:url(#linearGradient136298);fill-rule:evenodd">
      <path
         d="m 380.46863,97.363373 h 2.34375 v 2.148437 q -13.08594,3.51563 -53.32031,19.33594 v 1.17187 h 2.14843 q 13.67188,-2.34375 16.01563,-2.34375 l 1.17187,2.34375 q -39.64843,16.99219 -43.16406,16.99219 v 2.34375 h 3.32031 q 2.73438,-2.34375 18.16407,-5.66406 v 1.17187 q -1.36719,1.5625 -50,23.82813 -35.9375,17.1875 -41.99219,23.82812 v 0.97657 q 0.39062,3.125 5.66406,5.66406 33.59375,-6.64063 48.82813,-6.64063 h 8.00781 q 9.57031,0 14.84375,2.14844 1.95312,-1.17187 4.49219,-1.17187 h 4.49218 q 0,5.66406 16.99219,5.66406 l 1.17188,2.34375 q -2.14844,1.17187 -3.32032,1.17187 0,2.34375 12.5,8.98438 l 2.14844,8.00781 v 8.00781 q -4.29687,16.79688 -35.15625,43.16407 -2.34375,0 -40.82031,33.98437 -40.625,38.67188 -54.49219,47.65625 v -1.17187 l 3.32031,-4.49219 v -1.17188 l -19.33593,14.84375 v 2.14844 q 7.03125,-5.66406 10.35156,-5.66406 -37.5,30.66406 -64.64844,46.67969 l -2.34375,-1.17188 q -9.57031,6.44531 -19.33594,10.15625 -9.96093,-4.88281 -10.15625,-6.83594 24.80469,-19.92187 25,-21.48437 v -3.51563 h -1.17187 q -5.85938,0 -22.65625,13.67188 -2.34375,0 -2.34375,-2.34375 45.3125,-36.13281 114.64844,-88.47656 42.77343,-35.9375 69.14062,-61.32813 l 2.34375,-10.15625 v -2.34375 q 0,-2.34375 -8.00781,-5.66406 -25.97656,0 -67.96875,16.01562 h -1.17188 v -2.34375 q 4.6875,0 10.15625,-5.66406 v -1.17187 q -14.64843,2.34375 -19.33593,2.34375 -3.125,-0.19532 -5.66407,-6.83594 -7.8125,0 -18.16406,-12.5 0,-37.5 60.15625,-65.82031 3.71094,-4.88282 50,-25 47.85156,-15.820317 77.14844,-15.820317 z M 258.00769,162.01181 h 2.14844 q 2.14844,0 44.33594,-20.50781 v -2.14844 q -8.00782,0 -46.48438,22.65625 z m -38.67187,26.17188 v 3.32031 h 3.32031 v -1.17188 q 0,-2.14843 -2.14844,-2.14843 z m -10.15625,8.98437 v 4.49219 q 0.39062,2.34375 5.66406,4.6875 v -1.17188 q -3.51563,-4.88281 -3.51563,-8.00781 z m 10.15625,0 v 1.17188 q 6.44531,8.00781 14.84375,8.00781 h 0.97656 V 204.004 q -10.9375,-6.83594 -13.47656,-6.83594 z m 105.66406,3.51563 -1.17188,2.14843 q 2.73438,0 14.64844,8.00782 v -1.17188 q 0,-8.98437 -12.5,-8.98437 z m -4.6875,6.64062 v 1.17188 q 2.53906,0 14.84375,10.35156 H 336.328 V 216.504 q -2.73437,-5.66406 -14.84375,-9.17969 z m -3.32031,12.5 v 2.34375 q 0.39062,2.34375 2.14843,2.34375 h 1.17188 v -2.34375 q 0,-2.34375 -2.14844,-2.34375 z m 11.32812,1.17188 v 2.34375 q 0.39063,2.14843 2.34375,2.14843 v -2.14843 q 0,-2.34375 -2.34375,-2.34375 z M 147.85144,363.96494 v 2.34375 h 5.66406 q 33.00782,-22.85157 46.48438,-35.15625 H 198.828 q -1.36718,0 -49.80468,32.8125 z m -19.33594,28.51562 q 0.39063,2.14844 2.34375,2.14844 13.08594,-3.32031 80.46875,-58.98438 h -2.14843 q -27.14844,17.96875 -68.16407,48.82813 -9.57031,8.00781 -12.5,8.00781 z m 68.16407,-35.15625 h 1.17187 q 5.07813,-2.34375 5.66406,-4.6875 h -1.17187 q -5.27344,2.34375 -5.66406,4.6875 z"
         id="path853" />
    </g>
    <g
       aria-label="KYLON"
       transform="rotate(-30)"
       id="text6949-5"
       style="font-size:26.6667px;line-height:1.25;font-family:'True Lies';-inkscape-font-specification:'True Lies';mix-blend-mode:overlay;fill:url(#linearGradient138469);fill-rule:evenodd">
      <path
         d="m 203.01173,284.33986 q 0.33854,0.1302 0.33854,0.24739 -0.16927,0.59896 -0.16927,0.67709 v 0.0781 q 0.0911,0 1.0026,-1.0026 h 0.0911 l 0.32552,0.41666 q -0.16927,0.74219 -0.83334,2.00521 0,0.20834 -0.16927,0.41667 l 0.0911,0.41667 -2.51302,4.51823 q 0.0781,0 0.0781,0.0781 0.39063,0 3.17709,-1.83594 2.5,-1.47136 3.93229,-2.00521 0,-0.29948 0.58594,-0.41667 2.14844,-1.40625 4.9349,-2.42188 l 0.0781,0.16927 q -2.79948,1.52344 -4.01042,2.33074 0.19531,0 1.92708,-0.83334 1.45834,-0.58594 1.75782,-0.58594 v 0.0911 l -0.0911,0.16927 q 0.16927,0.026 0.16927,0.15625 -0.0781,0 -0.0781,0.0911 h 0.41667 q 0,0.16927 -1.26303,0.91146 -0.52083,0.42968 -5.18229,2.85156 v 0.0781 h 0.0911 l 0.58594,-0.16927 0.0781,0.16927 -8.60678,4.76563 q -0.11719,0 -0.24739,0.24739 0.1302,0.4948 2.76042,5.02605 3.16406,5.02605 3.16406,5.33855 -0.10416,0 -1.32812,-2.08334 h -0.0911 v 0.0781 q 0.28646,0.78125 0.58594,1.09375 l -0.0781,0.16927 q 0.11719,0 0.83334,1.41927 1.90104,3.45053 2.34375,4.01043 0,0.19531 0.2474,0.49479 v 0.0911 h -0.0781 l -0.67708,-0.7552 q -0.0781,0 -0.0781,0.0911 l -0.16927,-0.0911 h -0.0781 q 0,0.24739 -0.16927,0.24739 0,0.0912 0.49479,0.84636 l -0.16927,0.0781 q 0,-0.29948 -0.83334,-0.75521 0,-0.10416 -0.66406,-0.66406 -0.625,-1.06771 -1.17188,-1.58854 v 0.16927 q 1.51042,2.38281 1.51042,2.66927 h -0.0911 q -1.82292,-2.04427 -3.25522,-5.01303 -1.77083,-3.4375 -4.76563,-8.11199 h -0.33854 q -0.89844,1.58855 -3.00782,5.69012 -0.82031,0.33854 -1.25,1.66666 0,0.32553 -1.0026,1.41928 -0.61198,1.65365 -0.83334,1.75781 h -0.0911 q 0,-0.0651 0.16927,-0.66406 0,-0.0911 -0.0781,-0.2474 l 0.0781,-0.50781 v -0.0781 h -0.0781 l -0.16927,0.0781 q -0.33854,-0.13021 -0.33854,-0.2474 0.33854,-0.35156 0.33854,-0.67708 v -0.0781 q -0.26042,0 -0.26042,-0.16927 0,-0.80729 2.51303,-5.42969 0.13021,-0.36459 0.66406,-1.17188 0,-0.15625 0.33854,-0.58594 0,-0.19531 0.66407,-1.58854 0.16927,0.026 0.16927,0.16927 -0.0781,0.15625 -0.0781,0.2474 h 0.16927 q 0,-0.18229 1.00261,-1.92709 0,-0.15625 -0.16927,-0.15625 0,0.0781 -0.0911,0.0781 v -0.33855 q 0,-0.1302 0.33854,-0.32552 0,0.16927 0.0911,0.16927 0.50781,-0.35156 1.25,-2.09635 l -0.16927,-0.0781 q -0.16927,0.32552 -0.2474,0.32552 l 0.0781,0.16927 q 0,0.16928 -0.16927,0.16928 h -0.0781 v -0.0781 q 0.28646,-1.05469 0.83334,-1.09375 0.16927,0 0.16927,-0.16927 v -0.0781 q -0.2474,0 -0.2474,-0.0911 0.19532,-0.4948 0.32552,-0.4948 v 0.41667 h 0.16928 l 0.0911,-0.58594 h -0.16927 q 0.0521,-0.49479 0.2474,-0.49479 h 0.0781 v 0.0781 l -0.15625,0.24739 v 0.0912 h 0.0781 q 1.34114,-1.79688 1.34114,-2.26563 v -0.16927 h -0.16927 v -0.15625 q 0.41667,-0.52083 0.41667,-0.92448 0.33854,-0.41667 0.41667,-0.41667 l -0.0781,-0.16927 q 0.41667,-0.5599 0.41667,-0.75521 h 0.16927 v 0.16927 h 0.0781 q 0,-0.24739 0.0781,-0.24739 l -0.0781,-0.16927 q 0.6901,-1.83594 1.25,-1.83594 0.49479,-0.75521 0.58594,-0.75521 z m 6.27604,5.9375 h 0.0781 v 0.0781 q 0,0.10417 -0.58594,0.41667 h -0.32552 v -0.16927 q 0.5599,-0.14323 0.83333,-0.32553 z m -10.36459,0.58594 h 0.24739 q 0,0.16927 -0.16927,0.16927 h -0.0781 z m 8.26824,0.2474 v 0.0781 h 0.16927 q 0,-0.0781 0.0911,-0.24739 h -0.0911 q -0.16927,0.026 -0.16927,0.16927 z m -10.02606,3.17709 v 0.0781 q -0.16927,0.20833 -0.16927,0.41667 h -0.16927 v -0.15625 q 0,-0.13021 0.33854,-0.33854 z m -1.09375,2.00521 v 0.0781 q 0,0.13021 -0.24739,0.26042 v -0.0911 q 0,-0.11719 0.24739,-0.24739 z m 5.1823,3.59375 v 0.16927 q 0.3125,0.33854 1.01563,1.92709 0.0911,0 1.08073,2.00521 h 0.16927 v -0.0911 q 0,-0.28646 -2.17448,-4.01042 z m -0.91146,0.58594 v 0.16927 q 2.07032,4.38803 3.25521,5.84636 v -0.16927 q -2.63021,-4.96094 -3.25521,-5.84636 z m 0.83334,0.33854 v 0.16927 q 0.16927,0.27344 0.16927,0.49479 0.16927,0 0.16927,-0.16927 -0.23438,-0.49479 -0.33854,-0.49479 z m 0.24739,0.75521 q 0.3125,0.50781 1.26302,2.5 l 0.15625,-0.0781 q -1.14583,-2.30469 -1.32812,-2.42188 z m -8.85418,2.66927 v 0.0781 h 0.0781 l 0.50781,-1.08073 v -0.0912 q -0.58594,0.58594 -0.58594,1.09375 z m 10.44273,0.2474 v 0.16927 q 0.46875,1.04167 0.84635,1.34115 v -0.16927 z m -0.32553,1.26302 v 0.0781 q 0.53386,1.23698 1.00261,1.66667 h 0.0781 q -0.48177,-1.08073 -1.08073,-1.7448 z m 1.25001,0.4948 q 0,0.36458 0.66406,1.17187 v -0.0911 l -0.49479,-1.08073 z m 1.49739,0.0781 q 0.3125,0.27344 2.17449,3.60678 h -0.0781 q -2.09636,-3.19011 -2.09636,-3.60678 z m -0.41666,2.92969 v 0.0912 q 0.026,0.15625 0.16927,0.15625 v -0.0781 q 0,-0.16927 -0.16927,-0.16927 z m 1.17187,0.58594 q 0,0.22135 0.41667,0.41667 l 0.0911,-0.16927 q -0.33855,-0.10417 -0.33855,-0.41667 -0.16927,0.026 -0.16927,0.16927 z m 1.51042,0.2474 q 0.11719,0.013 0.33854,0.41666 h -0.0911 q -0.11719,0 -0.2474,-0.24739 z m -0.75521,0.41666 v 0.0912 q 0.026,0.16927 0.16927,0.16927 v -0.26042 z"
         id="path842" />
      <path
         d="m 217.49091,284.24871 h 0.16927 q 0,0.20833 0.15625,0.40365 -0.0781,1.39323 -0.0781,1.61458 v 0.2474 h 0.0781 l 0.40365,-2.10938 h 0.16927 v 0.40365 q 0,0.0911 -0.0911,0.0911 l 0.0911,0.15625 q 0,0.0781 -0.0911,0.0781 0.0911,0.15625 0.0911,0.24739 h 0.0781 l 0.0781,-0.97656 h 0.15625 q 0,0.36458 0.0911,0.49479 0,0.0781 -0.0911,0.0781 0,0.15625 0.0911,0.15625 -0.35156,2.63021 -0.65104,10.09116 v 0.16927 l -0.0781,0.40364 h 0.0781 q 0.19532,0 6.45834,-6.22396 3.3724,-3.02084 5.65105,-4.67449 v 0.0781 q -0.32552,0.27344 -0.80729,0.96354 -0.58594,0.65104 -0.72917,0.65104 l 0.0911,0.15625 q -5.57293,5.24741 -8.64585,8.47658 h 0.0781 l 6.86199,-6.28907 q 1.84896,-1.66667 2.42188,-2.01824 h 0.0911 q 0,0.0912 -0.89844,0.96355 v 0.0781 l 1.78386,-1.36719 h 0.0781 q -0.53385,0.625 -1.86198,1.61459 l 0.0911,0.15625 q -0.9375,0.74219 -1.70573,1.86198 0,-0.0781 -0.0781,-0.0781 -0.28646,0.59895 -0.96354,0.96354 -0.14323,0 -3.32032,3.07292 v 0.0781 h 0.16927 q 0,0.10417 -0.80729,0.8073 -0.0781,0 -0.0781,-0.0781 -0.22136,0 -1.94011,1.94011 v 0.0781 q 0.32552,0 0.32552,0.15625 0,0.14323 -3.95834,3.88022 -7.0573,7.55209 -8.56772,8.32032 -1.34114,1.44531 -1.61458,1.52344 -0.15625,0 -0.15625,-0.15625 0.13021,0 0.32552,-0.32552 v -0.0781 q -1.04167,0.8073 -1.38021,0.8073 -0.15625,-0.0781 -0.23438,-0.0781 0,0.0781 -1.13281,0.88542 h -0.40365 v -0.0781 q 1.26303,-0.97656 1.28907,-1.13281 h -0.15625 q -0.4948,0.40365 -0.72917,0.40365 l -0.0781,-0.15625 q 0.48178,0 3.38543,-3.15105 h -0.0781 q -1.47136,1.44531 -1.61459,1.44531 0,-0.0781 -0.0781,-0.0781 0,-0.15625 6.70574,-6.86199 3.32031,-3.46355 3.38542,-3.47657 0.14323,-0.20833 0.32552,-0.63802 0,-0.0781 -0.0781,-0.0781 0.15625,-1.41928 0.71615,-9.45314 h 0.16927 v 0.0781 q 0,0.625 -0.16927,2.99479 v 0.15625 h 0.0911 q 0.40364,-3.0599 1.11979,-7.66928 z m 14.70054,0.48177 h 0.0781 q 0,0.16927 -0.15625,0.16927 h -0.0781 q 0.026,-0.16927 0.15625,-0.16927 z m -0.40365,0.32552 h 0.0781 q -0.026,0.14323 -1.77084,1.53646 h -0.0781 v -0.0781 q 0.026,-0.11719 1.77083,-1.45834 z m -1.86198,1.53646 v 0.0781 q 0,0.15625 -0.15625,0.15625 h -0.0781 q 0,-0.10417 0.23437,-0.23438 z m -1.69271,1.69271 h 0.0781 q 0.15625,-0.0781 0.24739,-0.0781 v -0.16927 h -0.0781 q -0.11719,0 -0.2474,0.24739 z m -5.2474,6.38022 v 0.0781 q 0,0.0651 -1.21094,1.21093 h -0.0781 q 0.50782,-0.78125 1.28907,-1.28906 z m -3.15105,0.80729 -0.0781,0.15625 q 0.15625,-0.0781 0.24739,-0.0781 v -0.0781 z m -0.72916,0.8073 h 0.0911 q 0.10417,0 0.40365,-0.40365 h -0.0911 q -0.10417,0 -0.40364,0.40365 z m 0.57291,1.05468 h 0.0781 q 0.14323,-0.0911 0.32552,-0.0911 l -0.0781,-0.15625 q -0.32552,0.11719 -0.32552,0.24739 z m -0.48177,0.48178 v 0.0781 h 0.0781 q 0.11718,0 0.23437,-0.2474 v -0.0781 h -0.0781 q -0.11719,0 -0.23438,0.2474 z m -8.80209,8.15105 q 0,0.11719 -0.32552,0.40364 v 0.0781 h 0.0781 q 0,-0.10417 0.32552,-0.40365 v -0.0781 z m -1.05469,1.13281 h 0.0781 q 0.11719,0 0.2474,-0.24739 h -0.0781 q -0.11718,0 -0.24739,0.24739 z"
         id="path844" />
      <path
         d="m 235.35552,284.24871 q -0.10417,0.88542 -0.10417,1.09375 l 0.20833,-0.0911 q 0.19532,0.026 0.19532,0.19531 -0.19532,0.71615 -0.19532,0.79427 h -0.20833 l -0.0911,-0.6901 h -0.10416 q -0.59896,0.79427 -0.59896,1.39323 v 0.10416 q 0.10416,0 0.29948,0.0912 0.10416,-0.16927 0.10416,-0.39063 h 0.19532 q -0.48177,1.62761 -3.50261,8.38543 -1.58855,3.82813 -2.39584,5.09115 -0.28646,1.02865 -0.6901,1.19792 0,-0.0911 -0.10417,-0.0911 0,0.52083 -0.49479,1.0026 -0.10417,0.16927 -0.10417,0.39063 v 0.10416 h 0.19531 q 0,0.19532 -0.19531,0.19532 l -0.19531,-0.0912 q 0,0.29948 -1.00261,2.09636 v 0.29948 h 0.29948 v 0.0911 q -0.15625,0 -0.40364,0.20834 l 0.10416,0.19531 v 0.19531 h -0.19531 v -0.19531 l -0.50781,0.70312 q -0.0911,0.16928 -0.0911,0.39063 v 0.20833 h 0.19531 v 0.19532 q 0,0.14323 -0.29948,0.29948 h -0.10416 l 0.10416,-0.19532 h -0.10416 q -0.29948,0 -0.4948,0.89844 0,0.16927 0.89844,0.40365 0.10417,0 0.10417,-0.10417 l 0.69011,0.10417 q 0.26041,0 2.69531,-0.10417 1.39323,0.10417 1.79688,0.10417 l 0.20833,-0.10417 q 0.16927,0.10417 0.40365,0.10417 h 0.39062 q 0.36459,0 0.89844,-0.10417 0.10417,0 0.10417,0.10417 l 1.0026,-0.10417 h 1.28907 q 0.10417,0 0.10417,0.10417 0.19531,-0.10417 0.29948,-0.10417 2.23958,0 4.19271,-0.20833 0.10417,0 0.10417,0.10416 l 4.19271,-0.29948 0.19531,0.10417 q 0.18229,-0.10417 0.40365,-0.10417 0.10417,0 0.10417,0.10417 0.19531,-0.10417 0.29947,-0.10417 0.33855,0 1.69272,-0.10416 v 0.10416 q 1.47135,-0.19531 6.69271,-0.59895 v 0.19531 q -0.19531,0 -0.19531,0.29948 h -0.29948 l -0.49479,0.10416 v -0.10416 q -3.00782,0.40364 -4.50522,0.40364 h -0.19531 q -0.22135,0 -0.40365,0.10417 -0.0911,0 -0.0911,-0.10417 -1.47136,0.20834 -5.10417,0.29948 v 0.20834 h 0.10416 q 2.82553,0 5.4948,-0.20834 v 0.20834 q -0.40365,0 -1.19792,0.19531 -0.52083,-0.10417 -0.59896,-0.10417 l -1.0026,0.10417 q 0,0.19531 0.29948,0.19531 0.10416,0 0.29948,-0.0911 0.10416,0 0.29948,0.0911 1.86198,-0.0911 4.59636,-0.39062 v -0.10417 l -0.4948,0.10417 q -0.23437,0 -0.40364,-0.10417 l -0.59896,0.10417 h -1.00261 v -0.20834 h 0.8073 l 0.98958,-0.0911 v 0.0911 l 0.20833,-0.0911 q 0.0911,0 0.0911,0.0911 l 0.50781,-0.0911 h 0.69011 q 0.10417,0 0.10417,0.0911 0.45572,-0.19531 1.30208,-0.19531 h 0.49479 q 0.20834,0 0.20834,0.29948 l 1.19791,-0.10417 v 0.10417 q 1.00261,-0.29948 2.18751,-0.29948 l 0.10416,0.19531 q 0,0.20834 -0.19531,0.20834 h -0.20833 q -0.22136,0 -0.39063,-0.10417 -0.97656,0.29948 -1.30208,0.29948 h -1.39323 v 0.10417 q 0.026,0.19531 0.19531,0.19531 1.82292,-0.10417 2.79948,-0.29948 0.16927,0.10417 0.39063,0.10417 -0.48177,0.6901 -1.09375,0.6901 -11.58856,1.00261 -13.68492,1.00261 v -0.10417 l -0.19531,0.10417 h -1.10677 l -0.98959,0.10416 v 0.0912 h 2.89063 q 0.50781,0 1.4974,-0.0912 l 0.10417,0.19532 q -0.79428,0.15625 -4.29688,0.40364 v -0.10416 q -0.10417,0 -0.10417,0.10416 -1.84896,0.0912 -2.69532,0.0912 h -1.09375 l -0.59896,0.10417 q -0.10416,0 -0.10416,-0.10417 l -0.70313,0.10417 h -2.59115 q -0.10417,0 -0.10417,-0.10417 l -0.19531,0.10417 h -0.80729 q -0.19531,0 -0.19531,-0.19532 0.10416,0 0.10416,-0.10416 l 0.70313,0.10416 q 0.35156,0 0.89844,-0.10416 l 0.19531,0.10416 q 0.39063,-0.10416 0.70313,-0.10416 0,-0.19532 -0.20834,-0.19532 -0.16927,0.0911 -0.39062,0.0911 v -0.19531 h 0.49479 v -0.10417 q -1.05469,-0.19531 -2.39584,-0.19531 v -0.10417 l -0.20833,0.10417 h -1.09375 q -1.30209,0 -2.69532,-0.10417 l -1.30208,0.20833 q -2.14844,-0.20833 -2.50001,-0.20833 -0.32552,0.20833 -0.59896,0.20833 -0.36458,-0.29948 -0.6901,-0.29948 v -0.10416 l 0.29948,-0.59896 -0.10417,-0.19531 q 0,-0.26042 0.29948,-0.70313 l -0.19531,-0.10417 h -0.40365 q 0,0.36459 -0.40364,0.59896 h -0.19532 q 0.27344,-0.79427 0.70313,-1.39323 h 0.0911 q 0.29947,0 0.29947,0.49479 h 0.20834 q 0.19531,0 0.19531,-0.19531 l -0.10417,-1.19792 q 0.45573,-0.33854 2.00522,-3.9974 0.49479,-0.76823 0.49479,-1.60156 -0.19532,0 -0.19532,-0.19532 0.36459,-0.15625 1.00261,-1.79687 3.20313,-6.32814 6.78386,-14.58335 h 0.10417 q 0.10417,0.16927 0.10417,0.39062 h 0.19531 q 0.45573,-1.19792 0.70313,-1.19792 l 0.0911,0.20834 q 0,0.24739 -0.79427,1.99219 l 0.40365,0.29948 q 0.92448,-0.83334 1.49739,-2.69532 z m -3.09897,2.89063 v 0.29948 q 0.15625,0 0.40365,-0.39063 h -0.10417 q -0.19531,0.0912 -0.29948,0.0912 z m -1.0026,2.20052 v 0.70313 h 0.10417 q 0,-0.23438 0.29947,-0.59896 v -0.49479 q 0.35157,-0.0391 0.59896,-1.19792 v -0.10417 q -0.29948,0.15625 -0.70312,1.39323 -0.11719,0.29948 -0.29948,0.29948 z m -0.49479,1.30209 v 0.29948 h 0.10416 q 0.29948,-0.61198 0.29948,-0.79427 -0.14323,0 -0.40364,0.49479 z m -6.9922,13.78908 h 0.10417 v 0.0911 q 0,0.20834 -0.20834,0.20834 l -0.0911,-0.20834 z m 2.5,1.79687 0.19532,0.0912 q -0.26042,0.80729 -0.4948,0.80729 v -0.10416 q 0,-0.11719 0.29948,-0.79428 z m 32.1615,2.09636 q 0.59896,0.0912 0.59896,0.19531 l 0.19531,-0.10416 h 0.10417 v 0.20833 h -0.79427 l -0.50781,0.10417 -0.0911,-0.20834 v -0.10416 q 0.32552,0 0.49479,-0.0912 z m 1.4974,0.59896 h 0.10417 q 0.19531,0.026 0.19531,0.19531 h -0.29948 z m -17.47398,0.49479 h 0.89844 l -0.10417,-0.19531 q -0.10417,0 -0.10417,0.10417 l -0.49479,-0.10417 q -0.19531,0.026 -0.19531,0.19531 z m -2.60417,0 v 0.10417 h 0.59896 q 0,-0.19531 -0.29948,-0.19531 -0.19531,0.0911 -0.29948,0.0911 z m 1.90104,-0.0911 v 0.0911 h 0.4948 v -0.0911 z m -7.18751,0.19531 h -1.40625 v 0.10417 h 1.10677 v 0.0911 l 0.19532,-0.0911 h 2.59115 q 0,-0.20834 -0.19532,-0.20834 -0.57291,0 -1.60156,0.10417 -0.0911,0 -0.0911,-0.10417 z m 2.59115,-0.10417 v 0.10417 q 0.4948,0 1.19792,0.10417 0.19531,-0.10417 0.29948,-0.10417 v -0.10417 z m 1.79688,0 v 0.10417 h 0.40365 v -0.10417 z m -16.4844,0.8073 v 0.0911 q 0.0391,0.20834 0.20834,0.20834 v -0.29948 z m 30.67713,0.29948 v 0.0911 q 0,0.40365 -5.19532,0.50781 l -0.50782,0.0912 v -0.0912 l -0.19531,0.0912 h -0.49479 v -0.19531 q 1.09375,0 6.39324,-0.49479 z m 0.6901,0 h 0.50782 v 0.19531 h -0.50782 z m -20.16929,0.59895 v 0.0912 h 1.28906 q 0.10417,0 0.10417,0.10417 0.13021,-0.10417 0.70312,-0.10417 v -0.0912 h -1.30208 q -0.22136,0 -0.40365,-0.10416 -0.16927,0.10416 -0.39062,0.10416 z m 10.97657,0 h 1.60157 v 0.19532 h -0.39063 q -0.10417,0 -0.10417,-0.10417 -0.24739,0.10417 -1.0026,0.20833 l -0.10417,-0.20833 z m -12.68231,0.19532 h 0.29948 v 0.19531 h -0.29948 z m -7.78646,0.19531 0.49479,0.10417 h 3.20313 v 0.19531 h -3.80209 v -0.0912 z m 4.08854,0.10417 h 0.40365 v 0.19531 h -0.40365 z"
         id="path846" />
      <path
         d="m 256.18888,284.33986 q 0.91145,0 1.66666,1.06771 h -1.06771 q -1.51041,0 -3.91927,0.95052 v 0.11719 h 0.11719 q 3.39844,-0.23438 4.98698,-0.23438 h 0.23438 v 0.23438 h -0.46875 q -0.11719,0 -0.11719,-0.11719 l -6.41928,0.95052 q 0,0.14323 -1.1849,0.35156 v 0.23438 l 1.78386,-0.35156 h 0.11719 v 0.23437 q -7.95574,2.09636 -7.95574,3.08594 -3.88022,3.25521 -5.57293,6.0547 -2.61719,4.63542 -2.61719,7.1224 0,2.56511 2.61719,3.80209 0.46875,0.11719 0.83334,0.11719 5.23438,-2.08334 7.82553,-7.00522 0.71615,-2.23959 1.1849,-5.33855 h 0.24739 l -0.24739,2.25261 q 0.36458,0 0.59895,-1.77084 -0.11718,-0.46875 -0.11718,-0.95052 v -0.36458 h 0.23437 q 0.11719,1.79688 0.11719,2.5 0,0.92448 -0.58594,3.20313 0.66407,-0.58594 1.53646,-3.91928 0.41667,-3.20312 0.71615,-3.20312 0,0.11718 0.11719,0.11718 -0.11719,0.11719 -0.23438,1.41928 v 0.11718 h 0.11719 q 0.46875,-1.32812 0.58594,-2.95573 -0.23438,-0.49479 -0.23438,-0.71615 l 0.23438,-0.11718 q 0.35156,0 0.71614,1.90104 0,4.68751 -3.91927,12.09637 -3.09896,4.54428 -7.82553,5.93751 -2.09636,0.71614 -4.03647,0.71614 -4.75261,-1.3151 -4.75261,-7.1224 0,-6.61459 5.33855,-11.9922 1.73178,-1.90105 7.23959,-5.45574 6.1198,-2.96875 12.1094,-2.96875 z m -5.8073,1.90104 v 0.11719 q 0.98958,0 1.06771,0.11719 0.97656,-0.46875 1.18489,-0.46875 v -0.2474 z m -14.96096,9.37501 q 2.60417,-2.47396 4.15365,-4.15365 1.41927,-0.8724 1.41927,-1.41927 -2.40885,1.40625 -5.22136,4.97396 -0.35156,0.28646 -0.35156,0.59896 z m 0.23437,6.0547 q 0.14323,0 1.1849,-2.61719 1.28907,-2.90365 5.33855,-7.12241 v -0.11719 q -4.01042,2.98178 -4.38803,4.75261 -1.06771,1.22396 -2.13542,5.10418 z m -1.41927,-2.85157 v 0.11719 h 0.11719 q 2.60417,-3.6198 2.60417,-4.15365 -1.69271,1.45833 -2.72136,4.03646 z m 15.5469,0.95052 v 0.11719 h 0.11718 q 1.30209,-3.76302 1.30209,-4.8698 -0.78125,1.31511 -1.41927,4.75261 z m -14.84377,-3.67188 v 0.11719 q 0.24739,0 0.24739,-0.24739 v -0.11719 q -0.24739,0.0391 -0.24739,0.24739 z m -0.95052,1.41928 q -1.77084,4.14063 -1.77084,6.05469 0.23438,3.77605 0.83334,4.8698 h 0.11718 v -0.2474 q -0.36458,-0.74219 -0.36458,-2.48698 0,-1.91406 0.36458,-4.27084 l -0.11718,-0.23437 q 0.35156,-1.56251 1.0677,-3.56772 v -0.11718 z m 1.3151,4.98698 v 0.11719 q 0.23438,0 0.23438,-0.23438 v -0.11718 q -0.23438,0.026 -0.23438,0.23437 z m 11.74481,0.71615 v 0.11719 h 0.11719 q 0.48177,-0.79428 0.48177,-0.95053 -0.28646,0.0651 -0.59896,0.83334 z m -12.92971,-0.71615 q -0.36458,1.06771 -0.59895,2.3698 0.23437,2.4349 0.71614,3.56771 h 0.11719 v -0.2474 q -0.36458,-1.57552 -0.36458,-2.01823 l 0.1302,-0.23437 q -0.1302,-0.20834 -0.1302,-0.46875 0,-0.27344 0.1302,-0.48178 -0.1302,-0.22135 -0.1302,-0.35156 0.24739,-1.88802 0.24739,-2.01823 v -0.11719 z m 8.89325,4.50522 v 0.11718 q 0.40364,0 2.5,-2.48698 v -0.11719 h -0.11719 q -2.38281,2.21355 -2.38281,2.48699 z m 3.33333,-0.95053 q 0,0.15625 -2.26563,2.38282 h 0.11719 q 1.58855,-1.41927 2.26563,-2.26563 h 0.11719 v -0.11719 z m -11.28907,1.78386 v 0.11719 q 0.24739,1.1849 1.19791,1.1849 h 0.35157 v -0.11719 z m 2.38281,1.90104 h 1.41927 l 0.59896,-0.11718 v -0.11719 h -1.78385 q -0.23438,0.0391 -0.23438,0.23437 z m -2.13542,-0.11718 v 0.11718 q 0.46875,0.58594 1.06771,0.58594 h 0.23438 v -0.11719 q -0.16927,0 -1.30209,-0.58593 z"
         id="path848" />
      <path
         d="m 276.68369,284.27475 q 0.1823,0.026 0.1823,0.19531 v 0.1823 q 0,0.3125 -1.71876,2.78646 -2.65625,4.46615 -4.40104,8.22918 v 0.10416 h 0.0911 q 0.16927,-0.026 2.10938,-4.02344 l 0.57292,-0.85938 q 0.14323,0.37761 0.28646,0.37761 2.13542,-4.2448 2.48698,-4.59636 h 0.10417 q 0,0.0911 0.0911,0.0911 0.52084,-0.87239 0.76823,-0.95052 h 0.0911 v 0.0911 q 0,0.39062 -1.71875,2.87761 -4.73959,8.20313 -6.90105,12.9297 0.18229,0 1.91406,-3.35938 0.0781,0 0.67708,-0.76823 v 0.19531 q -3.71094,6.06772 -6.13282,11.67971 -0.46875,0.63802 -1.14583,0.87239 -0.15625,0.42969 -0.57292,0.66407 0,-0.0911 -0.10417,-0.0911 0,-0.10417 0.67709,-1.25 l -0.10417,-0.19531 q 0.10417,-0.1823 0.10417,-0.28646 -0.0391,-0.2474 -0.48177,-0.37761 0,0.13021 -0.48177,0.37761 -0.50782,-0.54688 -0.76823,-3.0599 h 0.10416 l -0.10416,-0.19532 q 0,-0.0911 0.10416,-0.0911 -0.19531,-1.05469 -0.39062,-2.96876 0,-0.0911 0.10416,-0.0911 l -0.10416,-0.39063 q 0,-4.45313 -0.46875,-9.67449 -3.26824,5.92449 -3.26824,6.41928 h -0.28646 v -0.19531 h -0.0911 l -0.0911,0.48177 0.18229,-0.0912 v 0.0912 q -1.77083,3.90625 -2.00521,4.11459 h -0.0911 l -0.19531,-0.0911 q -0.48178,0.58594 -4.21876,8.42449 l -0.28646,0.19531 q -0.19531,0 -0.19531,-0.19531 0.96354,-1.79688 0.96354,-2.00521 h -0.19531 q -0.5599,0.85938 -0.66406,0.85938 l -0.10417,-0.19532 q 1.15885,-2.61719 1.15885,-2.86458 l -0.28645,-0.39063 1.34114,-2.96875 -0.19531,-0.0912 q -1.31511,2.35678 -2.48698,5.16928 h -0.10417 l -0.0911,-0.19531 q 1.51041,-3.65886 4.11458,-7.94272 5.53386,-10.85939 7.09637,-13.50262 0.54687,-0.76823 0.66406,-0.76823 0.0911,0.18229 0.0911,0.28646 0.49479,-0.57292 0.76823,-0.57292 v 0.0911 q -0.57292,1.27605 -0.57292,1.53646 0.0911,0 0.0911,0.0912 l 0.19532,-0.0912 h 0.39062 q 0.28646,0.65105 0.37761,1.82292 l 0.19531,0.0912 v -0.28646 h 0.18229 v 0.0912 q 0.45573,4.64844 0.76823,12.5521 l -0.0911,0.19531 q 0.19531,0.75521 0.19531,1.8099 v 0.48177 h 0.18229 q 2.04427,-4.9349 5.5599,-11.49741 h 0.0912 l -0.0912,0.48177 q 3.04688,-4.96094 4.21876,-7.08334 0.9375,-0.72917 1.71875,-2.59115 z m -2.96875,3.0599 h 0.0911 v 0.19531 q -0.61198,1.61459 -2.59115,4.88282 v -0.0911 q 0,-0.28646 1.73177,-3.54167 0.625,-1.44532 0.76823,-1.44532 z m -11.01564,1.44532 v 0.57291 q 0.026,0.19532 0.19531,0.19532 v -0.76823 z m 0.0912,1.23698 -0.0912,0.48177 v 0.57292 q 0.026,0.19531 0.19531,0.19531 0,-0.0651 0.0912,-1.25 z m 0.85937,0.28646 v 0.28645 q 0.39063,10.09116 0.67709,12.07033 -0.0911,0 -0.0911,0.10417 h 0.18229 v -1.05469 l -0.0911,-0.96354 h 0.0911 l -0.0911,-0.19532 v -0.28645 q 0,-0.61198 -0.0911,-1.23699 0,-0.10416 0.0911,-0.28645 -0.0911,-3.02084 -0.57292,-8.43751 z m -2.96875,0.39062 q -0.16927,0.45573 -2.57813,4.68751 -1.82292,4.02344 -1.82292,4.21875 2.85157,-5 4.59636,-8.90626 z m 0.67708,0.95052 q -1.28906,2.82553 -1.43229,3.45053 v 0.0911 q 1.62761,-2.99479 1.62761,-3.54167 z m 1.4323,0.8724 0.10416,0.85938 q 0,1.82292 0.28646,9.08855 h 0.18229 q 0,-0.27344 -0.0911,-3.82813 l -0.0912,-0.37761 q 0,-0.10416 0.0912,-0.10416 l -0.0912,-0.46875 V 296.918 q 0,-1.57553 -0.19531,-4.40105 z m 8.2422,0.18229 v 0.19531 q -0.14323,0.37761 -0.28646,0.37761 v -0.18229 q 0.14323,-0.39063 0.28646,-0.39063 z m 2.39583,1.05469 q 0,0.10417 0.0912,0.10417 0,0.35156 -0.76823,1.14583 v -0.19531 q 0.3776,-0.8724 0.67708,-1.05469 z m -10.06512,0.28646 v 0.39062 h 0.10417 v -0.39062 z m 0.10417,0.57292 v 1.82292 l 0.0911,0.57291 q 0,0.10417 -0.0911,0.10417 l 0.0911,0.46875 v 2.30469 h 0.19531 q 0,-1.17188 -0.19531,-5.27344 z m 6.88803,2.01823 v 0.0911 h 0.28646 l -0.0912,-0.19531 0.0912,-0.46875 q -0.28646,0.0911 -0.28646,0.57292 z m -11.87501,1.23698 v 0.10417 q 0.19531,0 0.19531,-0.19532 v -0.0911 q -0.19531,0.026 -0.19531,0.18229 z m -0.85938,0.76823 q 0.22135,0 0.28646,-0.48177 -0.22136,0 -0.28646,0.48177 z m 5.07813,0 v 2.39584 q 0.0912,0.84635 0.0912,0.96354 h 0.10416 v -0.39063 q -0.10416,-1.75781 -0.10416,-2.96875 z m -5.45573,0.57292 q 0,0.16927 -0.19532,0.48177 v 0.10417 h 0.0912 q 0,-0.16928 0.19531,-0.48178 v -0.10416 z m -1.62761,0.67708 -0.10417,0.48177 q 0.19532,0 0.19532,-0.28646 v -0.19531 z m 0.46875,0 q 0,0.10417 -0.0911,0.28646 v 0.0912 h 0.0911 q 0,-0.10417 0.10417,-0.28646 v -0.0911 z m 0.76823,0.19531 v 0.0911 h 0.19531 v -0.28646 q -0.19531,0.026 -0.19531,0.19531 z m -1.53646,0.46875 -0.85938,1.91407 h 0.19532 l 0.76823,-1.8099 v -0.10417 z m 1.25,0 q 0,0.22136 -0.28646,0.58594 v 0.18229 q 0.19532,0 0.37761,-0.66406 v -0.10417 z m -0.48177,0.8724 -0.18229,0.57292 v 0.0911 h 0.0911 q 0,-0.16927 0.19532,-0.48177 v -0.18229 z m -0.57292,1.14584 q 0,0.20833 -0.0911,0.3776 v 0.10417 h 0.0911 q 0,-0.10417 0.10417,-0.28646 v -0.19531 z m 8.81512,0.3776 v 0.96354 h 0.0911 v -0.96354 z m -1.05469,0.19531 v 0.37761 q 0,0.16927 0.19531,2.30469 h 0.0911 v -0.39063 q 0,-0.15625 -0.19532,-2.29167 z m 1.14583,2.10938 v 0.28646 q 0.19532,0 0.19532,-0.19531 z m -0.95052,0.76823 0.18229,2.00521 h 0.19532 q -0.19532,-1.54948 -0.19532,-2.00521 z"
         id="path850" />
    </g>
    <path
       style="opacity:0;fill:#ff708d;fill-opacity:1;stroke-width:0.78125"
       d="m 330.09341,240.87669 c -0.91276,-9.5762 -3.78536,-21.65708 -7.10941,-29.89897 -0.56405,-1.39854 -0.40924,-1.37652 1.90448,0.271 2.90608,2.06931 4.47296,4.26173 5.22143,7.30597 0.41114,1.67219 0.24968,2.14843 -0.72834,2.14843 -1.81433,0 -1.62356,3.65487 0.24291,4.65378 1.09225,0.58455 1.58957,0.53897 1.83121,-0.16783 0.35429,-1.03625 1.77955,6.39538 2.58578,13.4828 0.44337,3.89767 0.30801,4.46543 -1.45702,6.11107 l -1.9458,1.81418 z"
       id="path129596" />
  </g>
</svg>
